<svg width="128" height="128" viewBox="0 0 128 128" fill="none" xmlns="http://www.w3.org/2000/svg">
<path d="M88.064 91.8542C86.2185 91.3485 84.5184 90.8842 82.7767 90.408C82.5334 90.8073 82.4651 91.2864 82.4444 91.7832C82.4266 92.1766 82.5097 92.5877 82.2278 92.9426C82.1684 93.0195 82.1536 93.188 82.1951 93.2797C82.4414 93.818 82.0883 94.2232 81.934 94.72C81.3495 94.5426 81.0232 94.093 80.6938 93.6879C79.3853 92.079 78.1243 90.4317 77.0087 88.6749C76.5666 87.9799 76.0682 87.3204 75.5727 86.6639C75.006 85.9156 74.6766 85.0609 74.368 84.1914C74.19 83.6886 74.2078 83.1829 74.2731 82.6565C74.4392 81.2813 74.8517 79.9356 74.7775 78.5279C74.7122 77.2709 74.5134 76.0466 73.9052 74.9198C73.7509 74.6329 73.6144 74.3371 73.472 74.0503C73.5758 73.9615 73.6292 73.8758 73.6767 73.8787C74.8398 73.929 75.8901 73.4262 77.0028 73.2251C77.7 73.1009 78.3795 72.885 79.0738 72.746C79.6227 72.6366 80.0796 72.7312 80.5633 73.1453C81.7056 74.1242 81.9192 75.3604 81.9014 76.7475C81.8866 78.1316 81.4148 79.4329 81.2308 80.7815C81.1745 81.2014 81.0795 81.6155 81.038 82.0354C80.9846 82.5707 81.2932 82.9936 81.575 83.3899C82.5037 84.6971 83.4383 86.0014 84.4175 87.2731C85.0791 88.1308 85.815 88.9322 86.5122 89.7633C86.984 90.3223 87.4528 90.8842 87.9156 91.452C87.969 91.52 87.9779 91.6206 88.064 91.8542Z" fill="#C8AFF0"/>
<path d="M74.1508 80.748C73.1309 80.9527 72.0902 81.0921 71.0911 81.3711C68.5592 82.0772 66.0302 82.816 63.5249 83.6082C62.3301 83.9851 61.1709 84.4865 60.0176 84.985C57.8622 85.9166 55.7394 86.9225 53.5781 87.8304C51.6569 88.6375 49.712 89.4 47.7493 90.1002C44.8912 91.1179 42.0065 92.0585 39.1336 93.0317C38.849 93.1296 38.508 93.1534 38.4724 93.6815C32.3323 88.4505 26.0974 83.4718 20.1026 78.1992C14.1048 72.9267 8.47464 67.2625 2.61918 61.6814C2.61325 62.1888 2.83857 62.4143 3.07872 62.6457C4.86649 64.3815 6.62758 66.141 8.4361 67.853C11.1756 70.4462 13.9239 73.0276 16.7049 75.5763C19.729 78.3476 22.7768 81.0951 25.8543 83.807C27.473 85.2342 29.1748 86.5635 30.8381 87.9402C31.0753 88.136 31.3036 88.3437 31.5437 88.5395C33.1269 89.8243 34.7131 91.1061 36.2992 92.3879C36.4089 92.4769 36.5275 92.557 36.6402 92.646C37.1175 93.0317 37.1235 93.1237 36.6847 93.7023C36.569 93.64 36.4386 93.5895 36.3319 93.5065C34.7487 92.2603 33.1625 91.02 31.5941 89.7531C30.1206 88.5603 28.653 87.3557 27.2121 86.1243C25.0508 84.2758 22.9102 82.3977 20.7637 80.5314C16.8087 77.0895 12.9782 73.5083 9.25735 69.8172C6.88552 67.4643 4.62931 64.9897 2.30787 62.5834C1.96989 62.2333 1.85129 61.8328 1.80386 61.3847C1.75346 60.8981 1.85129 60.7557 2.33752 60.6222C3.01646 60.4353 3.69836 60.2572 4.38323 60.0851C4.75976 59.9902 5.0681 59.8329 5.31417 59.5036C6.78768 57.5275 8.35902 55.6226 9.63684 53.5041C9.77026 53.2816 9.93036 53.0739 10.0816 52.8603C10.2832 52.5754 10.5174 52.3292 10.4077 51.9049C10.3247 51.5785 10.6034 51.3975 10.891 51.2966C11.4513 51.1038 12.0027 50.8723 12.5779 50.7418C13.7876 50.4718 14.9586 50.1038 16.0882 49.5965C17.5143 48.9556 18.9641 48.3562 20.3516 47.6412C22.7323 46.4128 25.0567 45.0717 27.4404 43.8522C28.7449 43.1846 30.1117 42.6238 31.4785 42.0897C32.6822 41.618 33.963 41.4755 35.2527 41.5082C36.8626 41.5497 38.4813 41.5349 40.0793 41.7129C41.5884 41.882 43.0441 42.2707 44.0996 43.5733C44.5325 44.1103 45.2025 44.4545 45.7658 44.8847C46.0445 45.0984 46.3291 45.3061 46.6879 45.5761C46.7205 45.3387 46.7709 45.1903 46.759 45.045C46.4981 41.9414 47.7582 39.36 49.5104 36.9448C50.1359 36.0814 50.7467 35.2061 51.3663 34.3338C51.4908 34.1587 51.6005 33.9747 51.7369 33.8115C51.9949 33.5 52.238 33.4377 52.5256 33.7018C52.7568 33.9154 52.9614 34.2151 53.0533 34.5148C53.249 35.1705 53.3794 35.8499 53.5039 36.5235C53.5721 36.9062 53.6878 37.2 54.1088 37.2979C54.7225 37.4403 55.1702 37.8053 55.4488 38.458C55.7779 38.3898 56.0981 38.3334 56.4124 38.2533C57.6102 37.9417 58.8287 37.7845 60.068 37.737C60.7054 37.7133 61.3429 37.6154 61.9803 37.5709C62.7126 37.5174 63.4479 37.4284 64.1802 37.4551C66.3919 37.5352 68.5829 37.2356 70.7828 37.108C73.039 36.9774 75.2566 36.6333 77.4595 36.1318C78.2185 35.9597 79.0071 35.9004 79.7809 35.8084C80.5014 35.7224 81.121 35.9657 81.711 36.3751C84.6491 38.4194 87.6999 40.2976 90.6113 42.3894C94.5397 45.2111 98.5451 47.926 102.512 50.6973C105.195 52.5695 107.852 54.4833 110.553 56.3318C112.88 57.9251 115.207 59.5273 117.692 60.8774C118.024 61.0583 118.3 61.3699 118.646 61.4856C119.438 61.7467 119.918 62.3787 120.535 62.8594C121.146 63.3341 121.887 63.6397 122.572 64.0195C122.717 64.0996 122.901 64.1471 123.002 64.2658C123.571 64.9363 124.398 65.0194 125.163 65.236C125.934 65.4526 126.088 65.7018 125.848 66.4644C125.376 67.9539 125.717 67.6245 124.196 68.028C122.272 68.5384 120.354 69.0784 118.424 69.568C116.701 70.0071 114.979 70.4581 113.236 70.7904C110.879 71.2384 108.578 71.8912 106.271 72.5321C104.012 73.1611 101.735 73.7367 99.4731 74.3568C98.5836 74.6002 97.715 74.9325 96.8226 75.1758C95.6574 75.4903 94.4744 75.7395 93.3093 76.0511C92.4643 76.2766 91.6282 76.5525 90.7981 76.8255C90.4216 76.9501 90.1666 77.2142 90.051 77.6088C89.9146 78.0657 89.7901 78.5375 89.1289 78.4307C89.0103 78.4129 88.8739 78.5434 88.7405 78.5909C86.8342 79.2436 84.9278 79.8934 83.0185 80.5403C82.8169 80.6085 82.6034 80.656 82.3929 80.6619C82.2387 80.6679 82.0282 80.6382 81.9363 80.5373C81.5509 80.1041 81.1269 79.6709 81.2633 79.0003C81.3552 78.5493 81.4353 78.0954 81.545 77.5049C81.7999 77.8224 81.9571 78.0182 82.1112 78.2141C82.1498 78.1992 82.1883 78.1874 82.2298 78.1725C82.0431 77.4693 81.8563 76.7632 81.6665 76.06C81.9482 76.5584 82.2298 77.0569 82.4552 77.4575C82.3959 76.4724 82.0994 75.7098 81.5954 75.3538C81.5746 75.3953 81.5272 75.4398 81.5331 75.4754C81.5746 75.6772 81.6309 75.876 81.6784 76.0778C81.5924 75.9798 81.4531 75.8908 81.4323 75.781C81.37 75.4131 81.3493 75.0393 81.2989 74.5319C81.7851 74.8524 82.1972 75.1253 82.6212 75.4072C82.5975 74.4429 82.4937 74.3242 81.5983 74.2174C81.4145 74.1966 81.204 74.2293 81.1951 73.9474C81.8533 73.71 82.3662 73.8673 82.633 74.4963C83.0125 75.3864 83.3298 76.3062 83.3001 77.3032C83.2912 77.585 83.3001 77.8639 83.3001 78.1577C83.644 78.1132 83.6826 77.8877 83.6351 77.6385C83.4187 76.5495 83.1904 75.4606 82.9621 74.3747C82.8613 73.8881 82.4818 73.6952 82.0638 73.5587C81.794 73.4697 81.5094 73.4281 81.2426 73.3391C80.9283 73.2383 80.7119 73.0395 80.7267 72.6745C82.1883 72.1464 83.5284 72.7962 83.8249 74.2856C84.0324 75.3182 84.0561 76.3893 84.1688 77.496C84.4653 77.5079 84.6135 77.3239 84.6254 77.0005C84.661 75.7959 84.7825 74.5883 84.3852 73.4103C84.3645 73.3451 84.3675 73.2709 84.3615 73.1997C84.7914 73.5261 84.9159 74.0067 84.9397 74.5022C84.9693 75.155 84.9456 75.8107 84.9456 76.4635C85.0642 75.6149 85.1383 74.7693 85.1857 73.9237C85.2124 73.4281 85.0464 73.0009 84.5779 72.6656C84.5009 72.8703 84.4386 73.0424 84.3763 73.2145C82.8287 71.8793 80.9994 71.6805 79.096 72.0128C77.0207 72.3748 74.9661 72.8407 72.8996 73.262C72.8522 73.2709 72.8077 73.2828 72.7603 73.2946C68.6244 74.5141 64.3818 75.3657 60.3556 76.9471C57.3522 78.1251 54.3815 79.3683 51.4879 80.7984C49.5548 81.7538 47.601 82.6736 45.6265 83.537C44.8823 83.8604 44.5562 84.4568 44.1441 85.0265C44.1737 85.0651 44.2034 85.1037 44.233 85.1452C44.4732 85.0176 44.7133 84.8871 44.9535 84.7595C46.4626 83.9613 47.9568 83.1276 49.4866 82.3769C50.806 81.7301 52.1816 81.2049 53.5099 80.5729C57.6665 78.5939 61.924 76.8551 66.2822 75.3746C68.6185 74.5823 71.0348 74.072 73.4778 73.71C73.7802 73.6655 73.7831 73.6715 74.0677 74.0216C73.8484 74.0868 73.6616 74.167 73.4659 74.1966C69.665 74.7307 66.0065 75.79 62.4547 77.226C60.0591 78.1933 57.6843 79.2051 55.3006 80.202C55.096 80.2881 54.9033 80.4067 54.7462 80.5937C55.0901 80.4542 55.434 80.3088 55.7809 80.1812C58.295 79.2585 60.8033 78.3209 63.3293 77.4308C65.541 76.6504 67.7587 75.873 70.003 75.1906C71.2423 74.8138 72.5438 74.6328 73.8187 74.3717C74.1122 74.3123 74.3316 74.3776 74.3138 74.7485C73.6645 74.8375 73.036 74.9147 72.4104 75.0155C70.8332 75.2737 69.3448 75.8285 67.8447 76.3507C65.1586 77.2854 62.4487 78.1518 59.7686 79.1072C56.9312 80.1189 54.1503 81.2731 51.4345 82.5787C49.6616 83.4302 47.8738 84.2491 46.1068 85.1126C45.1492 85.5814 44.2093 86.0917 43.2813 86.6169C43.0086 86.7712 42.804 87.0441 42.5698 87.2637C42.5965 87.3052 42.6261 87.3468 42.6528 87.3853C42.7862 87.326 42.9256 87.2726 43.056 87.2073C44.2241 86.6287 45.3923 86.0502 46.5574 85.4686C48.1258 84.6853 49.6794 83.8693 51.2685 83.1246C54.0584 81.8131 56.8897 80.6085 59.816 79.6205C61.4318 79.0745 63.0002 78.3891 64.5923 77.7809C67.5897 76.6356 70.6731 75.7929 73.798 75.0868C74.0025 75.0393 74.216 75.0274 74.4413 74.9948C75.1025 75.9116 75.0461 76.9174 74.9009 77.9381C74.8623 78.2081 74.6459 78.2556 74.4413 78.312C73.3443 78.6117 72.2533 78.941 71.1474 79.2021C67.1479 80.1397 63.264 81.4571 59.3564 82.7062C56.2256 83.7091 53.3023 85.1719 50.3316 86.5457C49.3858 86.9818 48.4223 87.3824 47.4617 87.7859C46.7175 88.0974 45.9734 88.409 45.2173 88.6849C43.9929 89.127 42.7566 89.5454 41.5232 89.9637C41.369 90.0172 41.1912 90.0557 41.034 90.035C40.6782 89.9875 40.3966 90.0943 40.112 90.302C39.6999 90.5987 39.2907 90.6284 38.8252 90.3139C36.3259 88.6226 33.9304 86.8068 31.7512 84.709C31.1375 84.1186 30.4527 83.6023 29.8063 83.0445C28.6382 82.0416 27.4553 81.0565 26.3138 80.024C24.1999 78.1161 22.1186 76.1757 20.0136 74.2619C17.9086 72.3481 15.7918 70.4433 13.6749 68.5384C11.5076 66.586 9.33147 64.6426 7.16124 62.6932C6.73728 62.3134 6.2807 61.9603 5.9101 61.5301C5.50096 61.0554 4.95543 60.8269 4.44845 60.5213C4.39805 60.4916 4.31504 60.4916 4.25278 60.5035C3.81695 60.5955 3.38113 60.6964 2.82671 60.821C3.03721 61.0405 3.19731 61.2215 3.37223 61.3907C6.15914 64.0729 8.93419 66.7641 11.7359 69.4285C13.6097 71.2117 15.4982 72.9771 17.4105 74.7159C19.8002 76.8848 22.2016 79.0359 24.6357 81.1544C26.5866 82.8516 28.5997 84.4717 30.5683 86.1481C32.0121 87.3794 33.4204 88.6493 34.8524 89.8925C35.8189 90.7322 36.8033 91.5482 37.7698 92.3879C37.9803 92.5718 38.173 92.5718 38.422 92.4947C39.4864 92.1624 40.5596 91.8627 41.6181 91.5185C45.6117 90.2248 49.5667 88.8274 53.415 87.148C56.0448 85.9997 58.6419 84.7802 61.2776 83.6527C63.7681 82.5876 66.3474 81.7835 68.9802 81.1485C70.8213 80.7064 72.6654 80.2732 74.551 79.8282C74.6933 80.3059 74.5154 80.5818 74.1478 80.7747L74.1508 80.748ZM8.96977 62.9276C8.7563 62.708 8.5458 62.4855 8.32641 62.2689C7.68304 61.6399 7.03079 61.0168 6.39039 60.3818C6.2807 60.275 6.21844 60.1207 6.06723 59.8804C6.2718 59.9605 6.3222 59.9665 6.35482 59.9932C8.55766 61.904 10.7457 63.8326 12.9663 65.7196C14.8994 67.3604 16.8798 68.9449 18.7091 70.7073C19.4889 71.458 20.4228 72.0455 21.2974 72.6953C21.831 73.0899 22.4032 73.4341 22.9191 73.8495C25.5519 75.9472 28.1727 78.0598 30.7936 80.1723C31.7898 80.9764 32.8008 81.7657 33.7703 82.5994C36.0324 84.5488 38.3153 86.4744 40.7257 88.2399C40.779 88.2784 40.8532 88.2873 40.9421 88.317C41.0044 88.2488 41.0785 88.1894 41.1259 88.1152C41.1734 88.0381 41.1941 87.9461 41.2356 87.8423C41.0815 87.7088 40.9451 87.5782 40.7968 87.4625C38.9053 85.9967 37.0019 84.5429 35.1193 83.0682C32.19 80.7717 29.2786 78.4544 26.3524 76.1549C23.9657 74.2797 21.5553 72.4371 19.1805 70.5501C18.0658 69.6659 17.0221 68.6927 15.9163 67.7996C13.2954 65.6811 10.8317 63.3845 8.41535 61.0405C7.88762 60.5272 7.36878 60.008 6.82622 59.5095C6.45562 59.1683 6.3222 59.1861 6.02572 59.5718C5.87155 59.7706 5.74703 59.9902 5.61658 60.189C6.3311 60.8091 6.98632 61.3907 7.65043 61.9574C8.06254 62.3075 8.4954 62.6398 8.91936 62.9781C9.07946 63.1501 9.23067 63.3341 9.40263 63.4884C11.2556 65.15 13.1323 66.7848 14.9675 68.4642C18.6409 71.8259 22.3084 75.1906 25.9402 78.5998C27.1914 79.7718 28.5048 80.8488 29.9071 81.828C30.3726 82.1544 30.8588 82.457 31.2947 82.822C33.4945 84.6616 35.7567 86.4299 37.7935 88.4594C38.3064 88.9698 38.926 89.3763 39.4627 89.8006C40.0645 89.6077 40.4648 89.3199 40.6575 88.7561C40.4203 88.5603 40.2039 88.3764 39.9815 88.2013C39.0684 87.4833 38.1374 86.789 37.245 86.0502C35.5462 84.6437 33.8711 83.2106 32.1811 81.7953C30.7462 80.5937 29.3171 79.3801 27.8555 78.2081C25.875 76.6237 23.9212 74.9948 21.8488 73.5379C20.1559 72.3481 18.5668 71.0604 17.037 69.6718C15.1247 67.9361 13.1057 66.319 11.1252 64.6604C10.4166 64.0729 9.69021 63.5062 8.96977 62.9276ZM73.5519 43.5911C73.3443 43.6208 73.1309 43.6297 72.9293 43.689C72.4223 43.8373 71.9124 43.8166 71.5002 43.505C71.0466 43.1638 70.5515 43.1163 70.0297 43.0748C69.6769 43.0451 69.3122 43.0481 68.9713 42.9621C68.2894 42.79 67.7201 43.0125 67.3051 43.4991C66.8129 44.0807 66.2526 44.3358 65.5025 44.2527C65.0696 44.2053 64.7583 44.4041 64.4885 44.772C64.2454 45.1043 63.8926 45.3654 63.5665 45.6265C63.3085 45.8312 63.0031 45.9796 62.7363 46.1754C61.9833 46.7362 61.2035 46.8311 60.3556 46.3861C60.1332 46.2704 59.8545 46.2674 59.6055 46.2021C59.4009 46.1487 59.1667 46.1279 59.0096 46.0093C58.7368 45.7986 58.5115 45.5256 58.2654 45.2794C58.4374 45.3209 58.6123 45.3595 58.7902 45.401C58.9414 44.3121 58.7042 43.8373 57.9571 43.5555C58.0401 44.0955 58.132 44.6711 58.2209 45.2467C57.8059 45.0776 57.7317 44.7304 57.7317 44.3358C57.7317 43.7899 57.5361 43.3389 57.0528 43.0451C57.2603 42.9502 57.1714 42.8285 57.0558 42.7514C56.869 42.6238 56.6822 42.609 56.5725 42.8671C56.0477 42.6149 55.5823 42.3568 55.2295 41.8079C54.9181 41.3242 54.5564 40.9444 54.4586 40.3184C54.3934 39.8882 54.1947 39.4817 54.3133 39.0247C54.4052 38.6776 54.1918 38.5144 53.916 38.3749C53.756 38.2948 53.6255 38.1554 53.4832 38.0426C53.8686 38.1939 54.2511 38.3453 54.7017 38.5233C54.6424 37.9506 54.4734 37.5887 53.9516 37.4522C53.3231 37.289 53.0474 36.8647 52.994 36.2119C52.9495 35.666 52.8635 35.1052 52.5434 34.5266C52.5196 34.8115 52.5315 35.0103 52.4811 35.1883C52.2054 36.1763 52.3862 37.0516 53.0918 37.8082C52.3803 37.2919 51.8881 36.6896 52.1223 35.7194C52.2172 35.3248 52.2765 34.9064 52.2083 34.316C51.9622 34.6661 51.814 34.8708 51.6747 35.0785C51.2774 35.6689 50.9275 36.298 50.4828 36.8469C49.7772 37.7192 49.2465 38.6954 48.6684 39.6478C47.5655 41.4637 47.2571 43.4487 47.2393 45.5167C47.2364 45.8579 47.3283 46.1012 47.6337 46.2822C48.1021 46.5582 48.5587 46.8549 49.0034 47.1694C51.6836 49.0476 54.3578 50.9287 57.035 52.8158C57.9274 53.4448 58.8139 54.0768 59.6974 54.7177C60.5424 55.3319 61.3666 55.9698 62.2145 56.578C66.5164 59.6549 70.8302 62.7169 75.1292 65.7968C76.9406 67.0964 78.6988 68.4701 80.5369 69.7282C82.0757 70.7785 83.6944 71.7072 85.3399 72.7279C85.5208 72.2205 85.7253 71.725 85.8736 71.2117C86.176 70.1643 86.4072 69.0962 86.7423 68.0636C87.2759 66.4169 87.9163 64.8058 88.4263 63.1531C88.7672 62.0523 89.3364 61.1296 90.1103 60.3077C90.4512 59.9457 90.7714 59.5659 91.1124 59.2009C91.4681 58.8212 91.8239 58.4384 92.1945 58.0764C92.5888 57.6907 93.0009 57.3228 93.3834 56.9667C93.1195 56.7412 92.9298 56.578 92.74 56.4119C92.8497 56.4 92.9594 56.3881 93.1136 56.3703C93.0751 56.0529 93.0484 55.774 93.0098 55.4951C92.9505 55.0767 92.7845 54.7622 92.3576 54.5693C91.9751 54.3972 91.646 54.1035 91.2784 53.8958C91.1094 53.8008 90.893 53.7267 90.7062 53.7445C90.3267 53.7801 90.0272 53.6733 89.713 53.4685C89.5173 53.3409 89.2327 53.2727 88.9985 53.2994C88.6308 53.338 88.278 53.4804 87.9163 53.5783C87.4508 53.1154 86.9854 52.6526 86.5199 52.1897C86.2827 51.9523 86.1908 51.6675 86.3064 51.35C86.425 51.0177 86.5733 50.6973 86.7037 50.3709C86.763 50.2196 86.8905 50.0415 86.852 49.914C86.6592 49.2671 86.9676 48.7182 87.1781 48.0892C86.9112 47.9972 86.6652 47.9319 86.4369 47.8251C86.1641 47.6975 85.9121 47.5284 85.6482 47.3801C85.3666 47.2198 85.0998 47.0299 84.8033 46.9142C84.2578 46.7006 83.6944 46.5315 83.1371 46.3475C82.6953 46.2021 82.4166 45.9173 82.3455 45.4485C82.633 45.1399 82.4225 44.9174 82.1794 44.769C81.7377 44.499 81.2841 44.2409 80.8127 44.0361C79.7957 43.594 78.7403 43.238 77.7471 42.7484C77.1719 42.4636 76.7183 42.4072 76.1846 42.7959C75.6005 43.2202 74.9513 43.4813 74.1923 43.3329C73.9581 43.2677 73.6586 43.2499 73.5519 43.5911ZM80.78 70.6183C80.5162 70.4344 80.362 70.3216 80.2049 70.2178C79.0071 69.4107 77.7915 68.6215 76.6086 67.7907C74.7645 66.497 72.95 65.1618 71.1089 63.8652C67.8091 61.5479 64.4944 59.2544 61.1976 56.9371C59.4157 55.682 57.7199 54.3112 55.8906 53.1125C53.4921 51.5429 51.2122 49.7923 48.8729 48.1307C48.2385 47.6797 47.5151 47.3385 46.9399 46.8222C45.502 45.5345 43.7409 44.7156 42.2555 43.4991C42.1488 43.4101 42.0094 43.3507 41.879 43.3003C40.9095 42.9265 39.9637 42.5081 38.9112 42.3657C37.3043 42.1491 35.6944 42.1283 34.0845 42.2173C32.4509 42.3063 30.9152 42.8434 29.4713 43.5703C26.7615 44.9352 24.0932 46.3801 21.4071 47.7865C18.5283 49.2968 15.6228 50.7477 12.4267 51.4895C12.1184 51.5607 11.8219 51.6912 11.4365 51.8218C11.6677 52.0295 11.8041 52.1541 11.9405 52.2758C14.1196 54.1777 16.3195 56.0529 18.469 57.9874C20.2123 59.557 21.8577 61.2393 23.6159 62.7911C25.2672 64.2509 26.9987 65.6188 28.7064 67.0133C31.3895 69.203 34.0608 71.4046 36.7795 73.5498C39.516 75.7069 42.3 77.8046 45.0691 79.9201C45.8874 80.5462 46.6138 81.3147 47.6959 81.6292C47.77 81.5906 47.9005 81.5342 48.022 81.463C51.2833 79.5611 54.6632 77.8966 58.1676 76.4961C59.8397 75.8285 61.5771 75.3063 63.2107 74.5616C65.0281 73.7338 66.9048 73.084 68.7667 72.3837C71.2779 71.4432 73.878 70.9595 76.5374 70.7815C77.9072 70.6955 79.2799 70.6747 80.78 70.6183ZM86.6266 51.9019C86.9972 52.1927 87.27 52.3796 87.5101 52.6021C87.8689 52.9315 88.2454 53.0917 88.7316 52.9107C89.544 52.611 90.1429 53.5071 90.9552 53.3231C91.1213 53.2846 91.3466 53.4656 91.5334 53.5605C91.6164 53.602 91.6727 53.6881 91.7498 53.7415C92.0967 53.9848 92.4258 54.2785 92.8053 54.4477C93.1284 54.5901 93.2796 54.777 93.3775 55.0975C93.5731 55.7324 93.5969 56.4653 94.3647 56.8124C93.9437 57.1804 93.5731 57.4682 93.244 57.7975C92.2894 58.7529 91.3436 59.7172 90.4127 60.6934C89.8345 61.3016 89.4254 62.0167 89.1674 62.8238C88.5033 64.9007 87.8185 66.9718 87.1455 69.0428C87.1188 69.1229 87.1188 69.2089 87.0832 69.4611C87.6228 68.6482 88.0675 67.9776 88.5093 67.307C89.292 66.1202 90.4127 65.3636 91.7468 65.0135C93.1195 64.6545 94.5248 64.3726 95.9331 64.2331C97.4392 64.0848 98.9661 64.067 100.478 64.1234C102.82 64.2124 105.103 63.8741 107.392 63.438C110.558 62.8356 113.743 62.3312 116.918 61.7793C117.013 61.7615 117.102 61.7111 117.277 61.6429C117.048 61.5064 116.906 61.4263 116.77 61.3402C114.834 60.1445 112.865 58.9992 110.971 57.7411C108.602 56.1656 106.289 54.507 103.962 52.8692C98.6281 49.1188 93.2974 45.3654 87.9697 41.6091C87.2344 41.0898 86.511 40.5528 85.7728 40.0335C84.5928 39.1998 83.3861 38.3987 82.2269 37.5382C80.7237 36.4226 80.7326 36.3751 78.8826 36.7045C76.4574 37.1377 74.0618 37.734 71.5833 37.826C69.6888 37.8972 67.8002 38.0367 65.9057 38.1316C63.6346 38.2444 61.3606 38.3215 59.0896 38.4521C57.9185 38.5203 56.7978 38.9891 55.5763 38.9506C55.517 39.4609 55.4815 39.9801 55.3895 40.4875C55.3036 40.9652 55.3154 41.3747 55.7868 41.6595C55.8995 41.7277 55.9944 41.8613 56.0507 41.9889C56.19 42.2945 56.4302 42.3538 56.7356 42.3924C57.0261 42.428 57.3374 42.5259 57.5835 42.6802C57.9986 42.9443 58.3603 43.2914 58.7635 43.5733C59.2586 43.9175 59.5877 44.3418 59.6322 44.9648C59.6529 45.2645 59.7211 45.5612 59.7567 45.8075C60.1451 45.9707 60.4742 46.0567 60.7469 46.2348C61.162 46.5048 61.5148 46.3801 61.8587 46.1428C62.2886 45.849 62.7156 45.5494 63.1188 45.22C63.35 45.0301 63.5961 44.8046 63.7206 44.5406C63.9875 43.9827 64.4085 43.778 64.9866 43.8403C65.6062 43.9086 66.0598 43.692 66.472 43.2143C66.9938 42.6119 67.6579 42.3152 68.5058 42.5259C68.9831 42.6446 69.499 42.603 69.9852 42.701C70.4655 42.7959 70.9547 42.9205 71.3876 43.1371C71.8115 43.3507 72.1584 43.3923 72.5883 43.1816C72.9204 43.0184 73.3177 42.8434 73.6616 42.8819C74.4413 42.9739 75.058 42.6802 75.6391 42.2559C76.1698 41.8702 76.6679 41.9147 77.2282 42.2025C77.9635 42.5793 78.7165 42.9235 79.4815 43.241C80.5518 43.686 81.6784 43.9946 82.639 44.6859C82.9681 44.9233 83.2112 45.1725 83.229 45.5968C83.2349 45.7333 83.2734 45.8668 83.2883 45.947C83.8931 46.1814 84.4386 46.3979 84.9901 46.6056C85.1205 46.6561 85.2628 46.6976 85.4022 46.7125C86.4487 46.8193 87.3204 47.3593 88.2158 47.834C88.3729 47.9171 88.4974 48.0684 88.6456 48.196C87.9786 49.4392 87.3204 50.6379 86.6266 51.9019ZM7.66229 57.3762C7.96174 57.6343 8.21078 57.848 8.46279 58.0616C9.03796 58.5541 9.61906 59.0437 10.1913 59.5451C12.1184 61.2304 14.0307 62.9335 15.9726 64.604C18.3652 66.6602 20.7696 68.6986 23.186 70.7281C25.5993 72.7576 28.0334 74.7633 30.4586 76.7839C31.7512 77.861 33.038 78.9499 34.3365 80.0181C36.0413 81.4185 37.749 82.8101 39.4686 84.1898C40.3877 84.9286 41.3364 85.6318 42.3296 86.3973C42.6143 85.9997 42.8396 85.6852 43.0827 85.344C42.8603 85.1333 42.6943 84.9672 42.5164 84.8158C40.8324 83.3946 39.1543 81.9645 37.4555 80.561C36.0472 79.3979 34.633 78.2437 33.1921 77.1192C30.0524 74.6654 26.8445 72.2977 23.7611 69.7757C20.9713 67.4969 18.2733 65.0995 15.605 62.6784C13.411 60.6875 11.3179 58.5808 9.18027 56.5276C9.0172 56.3703 8.84524 56.222 8.63474 56.0351C8.29676 56.4979 8.00621 56.8985 7.66229 57.3762ZM41.5113 87.4061C41.9472 86.9136 41.9412 86.6881 41.4521 86.2875C41.1052 86.0027 40.7109 85.7742 40.364 85.4894C37.6156 83.2344 34.8702 80.9735 32.1307 78.7066C29.6077 76.6207 27.0876 74.5349 24.5764 72.4371C21.9734 70.2623 19.3851 68.0725 16.7909 65.8888C15.2136 64.5595 13.6215 63.2481 12.0709 61.8862C10.719 60.6964 9.41745 59.4472 8.08922 58.2277C7.9054 58.0586 7.6949 57.9132 7.41918 57.6937C7.13159 58.118 6.88848 58.474 6.6424 58.839C7.06637 59.2128 7.43104 59.5155 7.77199 59.8418C11.0955 63.0285 14.5495 66.0668 18.1162 68.9745C19.9543 70.4729 21.8251 71.9298 23.687 73.3985C26.9127 75.9353 30.1414 78.4663 33.37 80.9972C34.7309 82.0653 36.1125 83.1098 37.4674 84.1839C38.6385 85.1126 39.7858 86.068 40.948 87.0085C41.1289 87.1539 41.3275 87.2785 41.5113 87.4061ZM43.7498 84.2877C43.225 83.8634 42.7595 83.5014 42.3059 83.1246C40.2483 81.4096 38.1937 79.6917 36.1421 77.9737C33.1062 75.4339 30.0583 72.9089 27.0461 70.3453C25.2406 68.8084 23.4913 67.2091 21.7213 65.6336C19.3139 63.4914 16.9036 61.3491 14.508 59.192C13.0819 57.9073 11.6885 56.584 10.2772 55.2844C10.0578 55.0826 9.8177 54.9076 9.55087 54.6939C9.287 55.0648 9.07057 55.3675 8.82746 55.7087C9.02313 55.9045 9.1773 56.0766 9.34926 56.2339C12.3733 59.0022 15.436 61.7289 18.4186 64.5417C22.2372 68.1467 26.4324 71.2859 30.5357 74.5408C34.7131 77.8521 39.018 81.0061 42.9404 84.6349C43.053 84.7387 43.1954 84.8099 43.3584 84.9167C43.4889 84.6972 43.6015 84.5221 43.7498 84.2877ZM11.0926 52.2995C10.6212 52.6377 10.9443 52.8247 11.1667 53.0294C13.0671 54.78 14.9794 56.5187 16.8591 58.2901C18.3237 59.6727 19.7527 61.0969 21.1906 62.5093C23.8145 65.0877 26.5332 67.5592 29.415 69.8469C29.916 70.2445 30.3785 70.6866 30.8618 71.1109C32.5191 72.5647 34.1616 74.0364 35.8397 75.4665C37.9892 77.2943 40.1564 79.1012 42.3385 80.8933C43.142 81.552 43.9958 82.1484 44.8645 82.7982C45.2144 82.3591 45.5197 81.9734 45.8607 81.5491C45.5761 81.3087 45.33 81.0892 45.0721 80.8904C42.297 78.7422 39.5012 76.6237 36.7529 74.4399C34.043 72.2858 31.3777 70.0724 28.7064 67.8738C26.9661 66.4436 25.2376 64.9986 23.5239 63.5418C22.7294 62.8653 21.9734 62.1443 21.2084 61.4352C20.5829 60.8536 19.9721 60.2572 19.3495 59.6757C18.5549 58.9309 17.7545 58.1892 16.954 57.4504C16.1357 56.6967 15.2907 55.9698 14.4932 55.1924C13.414 54.145 12.2785 53.1867 11.0926 52.2995ZM9.77322 54.3765C10.6301 55.1004 11.4276 55.7354 12.1777 56.4208C13.9269 58.02 15.605 59.6994 17.4016 61.2423C21.8073 65.0253 26.0411 69.0042 30.5505 72.6686C32.0774 73.9088 33.5005 75.2707 35.0007 76.5436C36.5186 77.8313 38.0781 79.0686 39.6109 80.3415C40.6516 81.2049 41.6655 82.095 42.7062 82.9555C43.1183 83.2967 43.563 83.5993 44.0374 83.9524C44.2716 83.626 44.4584 83.3709 44.6362 83.1216C43.8357 82.5282 43.0708 82.0119 42.3563 81.4274C39.9341 79.4484 37.5207 77.4575 35.1222 75.4487C33.8325 74.3687 32.5755 73.2501 31.3095 72.1404C30.4912 71.4224 29.7144 70.651 28.8665 69.9685C26.0588 67.7046 23.349 65.3339 20.7904 62.7941C19.2813 61.2927 17.79 59.7677 16.2572 58.2811C14.6918 56.765 13.0908 55.2844 11.5017 53.7919C11.2141 53.5219 10.9058 53.2786 10.5619 52.9819C10.2802 53.4834 10.0371 53.9106 9.77322 54.3765ZM90.4127 75.0571C101.694 71.7399 113.105 68.9834 124.351 65.6188C123.826 65.3606 123.77 65.3369 123.206 65.4912C122.293 65.7404 121.392 66.0401 120.476 66.2715C118.409 66.7937 116.346 67.3248 114.264 67.7847C112.322 68.212 110.342 68.4761 108.415 68.9478C106.639 69.384 104.857 69.743 103.04 69.9478C102.764 69.9774 102.5 70.105 102.233 70.194C102.055 70.2534 101.886 70.3424 101.706 70.3839C101.056 70.5234 100.407 70.6628 99.7547 70.7785C96.9945 71.2681 94.4477 72.3452 91.9721 73.6121C91.7083 73.7486 91.4533 73.9563 91.2725 74.1907C91.0205 74.5141 90.8396 74.8909 90.4127 75.0571ZM121.804 64.4052C121.448 64.0462 121.169 64.0284 120.843 64.0551C118.199 64.2687 115.557 64.4764 112.91 64.6604C111.012 64.7939 109.129 65.0639 107.324 65.6455C104.875 66.4317 102.387 66.7018 99.8318 66.7018C97.626 66.7047 95.438 66.9718 93.336 67.7254C92.746 67.9361 92.233 68.2506 91.7676 68.6719C90.6232 69.7104 89.8078 70.9862 89.1763 72.3748C88.5211 73.8168 87.9311 75.2855 87.2878 76.8017C87.5368 76.8878 87.6969 76.9442 87.8689 77.0035C88.5211 75.4962 89.1289 74.0305 89.7871 72.5885C90.1103 71.8793 90.4927 71.1939 90.8989 70.5293C91.3792 69.749 92.0403 69.1733 92.8734 68.7431C93.8993 68.215 94.9725 68.0577 96.0962 68.0162C97.1843 67.9746 98.2783 67.9509 99.3515 67.7907C100.849 67.5681 102.322 67.1854 103.817 66.9421C106.037 66.5831 108.281 66.3635 110.487 65.9422C113.728 65.3221 117.001 65.0046 120.271 64.6367C120.74 64.5803 121.202 64.4972 121.804 64.4052ZM86.1226 76.7276C86.4487 76.7839 86.4547 76.5703 86.5021 76.3863C86.7363 75.4665 86.9261 74.5349 87.2196 73.6358C87.8807 71.6123 88.8028 69.7074 90.2822 68.1556C91.5511 66.8264 93.0958 65.8502 94.9369 65.5921C96.529 65.3695 98.1508 65.3072 99.7607 65.2954C101.827 65.2775 103.879 65.1055 105.927 64.8829C108.21 64.6337 110.431 63.9958 112.738 63.8415C114.84 63.702 116.924 63.3489 119.017 63.0849C119.207 63.0611 119.391 62.9899 119.613 62.9335C119.355 62.5567 119.044 62.533 118.735 62.5627C117.887 62.6398 117.037 62.708 116.195 62.8327C113.099 63.2955 110.001 63.7406 106.918 64.2687C104.967 64.604 103.013 64.7227 101.041 64.6841C99.9504 64.6634 98.8594 64.6663 97.7683 64.7197C97.0153 64.7553 96.2592 64.8681 95.5151 64.9986C94.7442 65.1351 93.9882 65.3369 93.2233 65.503C91.5156 65.871 90.1666 66.7492 89.2831 68.2862C87.8333 70.8141 86.7511 73.4845 86.1285 76.3389C86.0989 76.4635 86.1226 76.6029 86.1226 76.7276ZM91.3762 70.6035C91.9455 70.3335 92.3605 70.1169 92.7904 69.9359C94.424 69.2505 96.1555 68.9478 97.9017 68.8114C100.241 68.6304 102.574 68.4375 104.89 68.0666C106.129 67.8678 107.383 67.7729 108.619 67.577C111.282 67.1528 113.87 66.3338 116.574 66.1024C117.455 66.0253 118.314 65.6781 119.183 65.4556C119.521 65.3695 119.856 65.2864 120.194 65.2004C118.836 65.2627 117.493 65.3903 116.156 65.5654C114.653 65.7612 113.156 65.9897 111.658 66.2241C109.811 66.5148 107.967 66.8264 106.12 67.126C104.789 67.3426 103.455 67.5355 102.127 67.7699C100.119 68.123 98.1063 68.4167 96.0576 68.3782C95.518 68.3693 94.9577 68.4227 94.4418 68.5651C93.2707 68.8885 92.1767 69.381 91.3762 70.6035ZM78.7847 71.4254C78.7877 71.3838 78.7907 71.3423 78.7936 71.2978C77.5455 71.3927 76.2943 71.455 75.0491 71.5915C71.4736 71.9802 68.1648 73.2828 64.865 74.6091C63.9875 74.9621 63.1099 75.3271 62.2115 75.6149C58.9325 76.6682 55.7809 78.0182 52.7153 79.5789C52.5908 79.6412 52.4811 79.7332 52.3655 79.8104C52.5908 79.8074 52.7568 79.7303 52.9288 79.6561C55.3036 78.6443 57.6606 77.585 60.0561 76.6326C64.1149 75.0185 68.3931 74.1135 72.5735 72.9C74.6162 72.3125 76.7124 71.912 78.7847 71.4254ZM107.042 65.1114C106.197 65.2034 105.355 65.325 104.507 65.3814C101.931 65.5505 99.3545 65.7434 96.7751 65.8354C93.9852 65.9333 91.7854 67.1171 89.9917 69.1971C89.3098 69.9863 88.9659 70.9506 88.4767 71.8408C87.7384 73.1848 87.3797 74.6654 86.9616 76.1223C86.9468 76.1786 86.9765 76.2499 86.9824 76.3122C87.2581 75.8612 87.439 75.3775 87.6287 74.8969C88.3254 73.1314 89.0518 71.3749 90.1458 69.8083C90.8544 68.7906 91.6519 67.853 92.8645 67.3871C94.4507 66.7759 96.1021 66.4763 97.7861 66.3605C99.2507 66.2597 100.721 66.2419 102.189 66.2003C103.867 66.1558 105.471 65.776 107.042 65.1114ZM108.904 70.9684C108.895 70.915 108.886 70.8616 108.877 70.8082C108.744 70.8408 108.614 70.8705 108.48 70.9061C106.257 71.4906 104.033 72.0603 101.815 72.6626C98.1597 73.6566 94.507 74.6684 90.8544 75.6861C90.5402 75.7751 90.1873 75.8641 89.9739 76.2113C90.0895 76.2706 90.1607 76.3418 90.2081 76.327C96.4401 74.5438 102.672 72.7546 108.904 70.9684ZM42.042 88.5989C42.4393 88.3942 42.7921 88.2161 43.142 88.0322C45.2203 86.9432 47.3016 85.8781 49.46 84.9464C51.479 84.0741 53.412 83.003 55.3807 82.0149C55.4577 81.9763 55.52 81.9111 55.6653 81.8042C55.5052 81.8161 55.434 81.8042 55.3777 81.828C54.0939 82.3769 52.7983 82.905 51.5324 83.4896C49.7268 84.3233 47.939 85.1927 46.1483 86.0591C44.9327 86.6465 43.726 87.2548 42.5223 87.8601C42.2644 87.9906 41.9442 88.1004 42.042 88.5989ZM125.145 66.3635C120.194 67.7076 115.278 69.0398 110.36 70.375C110.472 70.4729 110.564 70.4818 110.65 70.4611C112.248 70.1139 113.855 69.8083 115.438 69.4077C117.297 68.9389 119.136 68.3782 120.986 67.8767C122.175 67.5563 123.375 67.2744 124.567 66.9718C124.84 66.9035 125.157 66.8738 125.145 66.3635ZM108.261 68.1082C107.25 68.215 106.236 68.2921 105.234 68.4375C103.078 68.752 100.929 69.0576 98.7437 69.1318C97.7298 69.1644 96.7099 69.298 95.7285 69.6095C96.0132 69.6332 96.2948 69.6243 96.5735 69.6036C97.6823 69.5175 98.7882 69.4137 99.897 69.3425C101.053 69.2683 102.21 69.2416 103.363 69.1615C105.044 69.0458 106.672 68.6778 108.261 68.1082ZM115.261 64.0195C115.264 64.0432 115.267 64.067 115.27 64.0937C117.019 63.9691 118.765 63.8474 120.594 63.7169C120.354 63.3252 120.117 63.2006 119.773 63.2777C119.545 63.3311 119.313 63.3786 119.079 63.4142C117.807 63.6189 116.535 63.8177 115.261 64.0195ZM81.3404 73.1314C81.6072 73.2086 81.8681 73.3006 82.1379 73.3629C82.7961 73.5142 83.2379 73.8732 83.3653 74.5675C83.4069 74.793 83.4869 75.0126 83.5877 75.3657C83.6737 73.3925 83.0956 72.7724 81.3404 73.1314ZM47.9034 82.1336C47.2423 82.101 46.7383 82.0772 46.1542 82.0505C45.9941 82.3116 45.7984 82.6291 45.5998 82.9495C45.6383 82.9822 45.6739 83.0148 45.7125 83.0504C46.4003 82.7596 47.0881 82.4748 47.9034 82.1336ZM89.6181 73.9504C89.1852 74.9799 88.7494 76.0095 88.3284 77.045C88.3017 77.1133 88.3936 77.232 88.4411 77.3566C88.782 76.9026 89.4817 75.0274 89.6181 73.9504ZM90.8366 72.5796C91.2725 72.1078 91.5956 71.7339 91.9484 71.3868C92.2805 71.0604 92.6452 70.7637 93.1136 70.3513C91.9366 70.7162 91.1213 71.455 90.8366 72.5796ZM116.129 66.681C115.228 66.5742 113.446 66.9124 112.85 67.3011C113.941 67.0934 115.035 66.8857 116.129 66.681ZM85.8617 47.2821C86.5021 47.561 87.1455 47.837 87.8185 48.1307C87.8096 48.0684 87.8274 47.9201 87.777 47.8904C87.1899 47.5521 86.6029 47.1991 85.8617 47.2821ZM48.6535 83.2848C48.6773 83.3204 48.7039 83.356 48.7277 83.3916C49.3621 83.0742 49.9966 82.7597 50.634 82.4422C50.6133 82.4036 50.5925 82.365 50.5718 82.3265C49.9314 82.6439 49.291 82.9644 48.6535 83.2848ZM82.1083 78.8401C82.046 78.8401 81.9838 78.8431 81.9245 78.8431C81.8741 79.0241 81.7851 79.208 81.7881 79.389C81.7881 79.4751 81.9511 79.5938 82.0608 79.6264C82.1172 79.6442 82.2951 79.4899 82.2862 79.4335C82.2565 79.2288 82.1705 79.036 82.1083 78.8401ZM47.2245 84.1779C47.2038 84.1334 47.183 84.0859 47.1622 84.0414C46.9162 84.1661 46.6731 84.2907 46.427 84.4123C46.4477 84.4509 46.4655 84.4895 46.4863 84.528C46.7323 84.4123 46.9784 84.2936 47.2245 84.1779ZM89.4728 77.4129C89.4432 77.4011 89.4135 77.3862 89.3839 77.3744C89.3187 77.499 89.2445 77.6206 89.1912 77.7512C89.1793 77.7809 89.2386 77.8432 89.3127 77.9678C89.3809 77.7275 89.4254 77.5702 89.4728 77.4129ZM82.0312 71.5203C82.0253 71.547 82.0164 71.5737 82.0104 71.5975C82.1646 71.6509 82.3188 71.7043 82.473 71.7606C82.4848 71.728 82.4937 71.6924 82.5056 71.6598C82.3484 71.6153 82.1883 71.5678 82.0312 71.5203Z" fill="#1E1919"/>
<path d="M74.1359 80.7598C74.3435 80.7658 74.4591 80.8874 74.4028 81.0803C74.3405 81.2969 74.2723 81.5491 74.1182 81.6915C73.9551 81.8399 73.6942 81.8873 73.4689 81.9615C69.9022 83.178 66.3178 84.3441 62.7719 85.614C58.1527 87.2696 53.5484 88.9638 48.9708 90.7233C46.7383 91.5808 44.5888 92.6519 42.38 93.5777C41.3542 94.0049 40.2869 94.3372 39.2255 94.6696C38.5554 94.8802 37.6927 94.4114 37.2895 93.634C37.4259 93.6904 37.5178 93.7052 37.58 93.7557C38.1315 94.2245 38.7096 94.0613 39.3174 93.8833C40.6664 93.4946 41.9442 92.9397 43.228 92.379C46.421 90.9874 49.6112 89.5929 52.9051 88.4357C56.614 87.1302 60.2755 85.6852 63.9726 84.3411C66.2881 83.4985 68.6303 82.7329 70.9636 81.9348C71.6811 81.6885 72.4075 81.466 73.119 81.2108C73.4718 81.0832 73.8069 80.9052 74.1478 80.748C74.1508 80.748 74.1359 80.7598 74.1359 80.7598Z" fill="#1E1919"/>
<path d="M73.6705 43.7246C74.1656 43.7216 74.6607 43.7394 75.1529 43.7068C75.3782 43.692 75.5917 43.5703 75.817 43.5139C76.1312 43.4368 76.4485 43.3537 76.7687 43.3211C77.0681 43.2914 77.3735 43.3122 77.6759 43.3329C78.0465 43.3567 78.4379 43.3537 78.678 43.7276C77.9753 43.6801 77.2727 43.6237 76.5671 43.5881C76.4366 43.5822 76.2706 43.6267 76.1698 43.7098C75.5442 44.2171 74.8149 43.9916 74.1271 44.0005C73.9729 44.0065 73.8217 43.8225 73.6705 43.7246Z" fill="#1E1919"/>
<path d="M87.9163 53.5546C88.1683 53.5664 88.4203 53.5902 88.6723 53.5902C89.0963 53.5872 89.5292 53.5368 89.7812 53.9967C89.4106 53.9848 89.0429 53.964 88.6723 53.964C88.3432 53.9611 88.0823 53.8513 87.9163 53.5546Z" fill="#1E1919"/>
<path d="M89.7663 53.9789C89.9917 54.0263 90.2199 54.1154 90.4423 54.1065C90.9552 54.0886 91.3318 54.2993 91.6253 54.6969C91.2784 54.599 90.9374 54.4684 90.5846 54.415C90.2466 54.3676 89.9709 54.2548 89.7663 53.9789Z" fill="#1E1919"/>
<path d="M80.5162 44.5791C81.1151 44.7482 81.7377 44.8551 82.2269 45.2883C81.628 45.1221 80.9906 45.0509 80.5162 44.5791Z" fill="#1E1919"/>
<path d="M78.9626 44.0213C79.4904 44.1993 80.0952 44.1667 80.534 44.588C79.9855 44.4693 79.3777 44.5138 78.9626 44.0213Z" fill="#1E1919"/>
</svg>
